<mxfile host="app.diagrams.net" modified="2020-11-19T16:32:21.126Z" agent="5.0 (Windows NT 10.0; Win64; x64) AppleWebKit/537.36 (KHTML, like Gecko) Chrome/86.0.4240.198 Safari/537.36" etag="p2AJbWHX5pi0JscLec_j" version="13.10.0" type="github">
  <diagram id="A2onpQF-9WkOvh7NmmWa" name="Page-1">
    <mxGraphModel dx="2331" dy="645" grid="1" gridSize="10" guides="1" tooltips="1" connect="1" arrows="1" fold="1" page="1" pageScale="1" pageWidth="827" pageHeight="1169" math="0" shadow="0">
      <root>
        <mxCell id="0" />
        <mxCell id="1" parent="0" />
        <mxCell id="_9FYrN_dxhrk0gzHvM_J-3" style="edgeStyle=orthogonalEdgeStyle;rounded=0;orthogonalLoop=1;jettySize=auto;html=1;entryX=0.5;entryY=0;entryDx=0;entryDy=0;endArrow=none;endFill=0;" parent="1" source="_9FYrN_dxhrk0gzHvM_J-1" target="_9FYrN_dxhrk0gzHvM_J-2" edge="1">
          <mxGeometry relative="1" as="geometry">
            <Array as="points">
              <mxPoint x="490" y="140" />
              <mxPoint x="-5" y="140" />
            </Array>
          </mxGeometry>
        </mxCell>
        <mxCell id="_9FYrN_dxhrk0gzHvM_J-5" style="edgeStyle=orthogonalEdgeStyle;rounded=0;orthogonalLoop=1;jettySize=auto;html=1;endArrow=none;endFill=0;" parent="1" source="_9FYrN_dxhrk0gzHvM_J-1" target="_9FYrN_dxhrk0gzHvM_J-4" edge="1">
          <mxGeometry relative="1" as="geometry">
            <Array as="points">
              <mxPoint x="490" y="140" />
              <mxPoint x="330" y="140" />
            </Array>
          </mxGeometry>
        </mxCell>
        <mxCell id="_9FYrN_dxhrk0gzHvM_J-7" style="edgeStyle=orthogonalEdgeStyle;rounded=0;orthogonalLoop=1;jettySize=auto;html=1;entryX=0.5;entryY=0;entryDx=0;entryDy=0;endArrow=none;endFill=0;" parent="1" source="_9FYrN_dxhrk0gzHvM_J-1" target="_9FYrN_dxhrk0gzHvM_J-6" edge="1">
          <mxGeometry relative="1" as="geometry">
            <Array as="points">
              <mxPoint x="490" y="140" />
              <mxPoint x="725" y="140" />
            </Array>
          </mxGeometry>
        </mxCell>
        <mxCell id="_9FYrN_dxhrk0gzHvM_J-9" style="edgeStyle=orthogonalEdgeStyle;rounded=0;orthogonalLoop=1;jettySize=auto;html=1;entryX=0.5;entryY=0;entryDx=0;entryDy=0;endArrow=none;endFill=0;" parent="1" source="_9FYrN_dxhrk0gzHvM_J-1" target="_9FYrN_dxhrk0gzHvM_J-8" edge="1">
          <mxGeometry relative="1" as="geometry">
            <Array as="points">
              <mxPoint x="490" y="140" />
              <mxPoint x="1105" y="140" />
            </Array>
          </mxGeometry>
        </mxCell>
        <mxCell id="_9FYrN_dxhrk0gzHvM_J-1" value="&lt;span style=&quot;font-size: 14px&quot;&gt;&lt;b&gt;Забавна едукација за деца од аутистичен спектар&lt;/b&gt;&lt;/span&gt;" style="rounded=0;whiteSpace=wrap;html=1;" parent="1" vertex="1">
          <mxGeometry x="420" width="150" height="90" as="geometry" />
        </mxCell>
        <mxCell id="_9FYrN_dxhrk0gzHvM_J-12" style="edgeStyle=orthogonalEdgeStyle;rounded=0;orthogonalLoop=1;jettySize=auto;html=1;entryX=0.637;entryY=0.011;entryDx=0;entryDy=0;entryPerimeter=0;endArrow=none;endFill=0;" parent="1" source="_9FYrN_dxhrk0gzHvM_J-2" target="_9FYrN_dxhrk0gzHvM_J-11" edge="1">
          <mxGeometry relative="1" as="geometry" />
        </mxCell>
        <mxCell id="_9FYrN_dxhrk0gzHvM_J-14" style="edgeStyle=orthogonalEdgeStyle;rounded=0;orthogonalLoop=1;jettySize=auto;html=1;endArrow=none;endFill=0;" parent="1" source="_9FYrN_dxhrk0gzHvM_J-2" target="_9FYrN_dxhrk0gzHvM_J-10" edge="1">
          <mxGeometry relative="1" as="geometry" />
        </mxCell>
        <mxCell id="_9FYrN_dxhrk0gzHvM_J-2" value="&lt;b&gt;&lt;font style=&quot;font-size: 14px&quot;&gt;Запознавање со животинскиот свет&lt;/font&gt;&lt;/b&gt;" style="rounded=0;whiteSpace=wrap;html=1;" parent="1" vertex="1">
          <mxGeometry x="-70" y="190" width="130" height="70" as="geometry" />
        </mxCell>
        <mxCell id="_9FYrN_dxhrk0gzHvM_J-20" style="edgeStyle=orthogonalEdgeStyle;rounded=0;orthogonalLoop=1;jettySize=auto;html=1;endArrow=none;endFill=0;" parent="1" source="_9FYrN_dxhrk0gzHvM_J-4" target="_9FYrN_dxhrk0gzHvM_J-19" edge="1">
          <mxGeometry relative="1" as="geometry">
            <Array as="points">
              <mxPoint x="280" y="275" />
              <mxPoint x="280" y="275" />
            </Array>
          </mxGeometry>
        </mxCell>
        <mxCell id="_9FYrN_dxhrk0gzHvM_J-24" style="edgeStyle=orthogonalEdgeStyle;rounded=0;orthogonalLoop=1;jettySize=auto;html=1;entryX=0.381;entryY=0.002;entryDx=0;entryDy=0;entryPerimeter=0;endArrow=none;endFill=0;" parent="1" source="_9FYrN_dxhrk0gzHvM_J-4" target="_9FYrN_dxhrk0gzHvM_J-23" edge="1">
          <mxGeometry relative="1" as="geometry">
            <Array as="points">
              <mxPoint x="280" y="265" />
              <mxPoint x="415" y="265" />
            </Array>
          </mxGeometry>
        </mxCell>
        <mxCell id="_9FYrN_dxhrk0gzHvM_J-4" value="&lt;b&gt;&lt;font style=&quot;font-size: 14px&quot;&gt;Учење на едноставни математички операции преку приказна&lt;br&gt;&lt;/font&gt;&lt;/b&gt;" style="rounded=0;whiteSpace=wrap;html=1;" parent="1" vertex="1">
          <mxGeometry x="230" y="170" width="160" height="85" as="geometry" />
        </mxCell>
        <mxCell id="_9FYrN_dxhrk0gzHvM_J-26" style="edgeStyle=orthogonalEdgeStyle;rounded=0;orthogonalLoop=1;jettySize=auto;html=1;endArrow=none;endFill=0;" parent="1" source="_9FYrN_dxhrk0gzHvM_J-6" target="_9FYrN_dxhrk0gzHvM_J-25" edge="1">
          <mxGeometry relative="1" as="geometry">
            <Array as="points">
              <mxPoint x="725" y="275" />
              <mxPoint x="650" y="275" />
            </Array>
          </mxGeometry>
        </mxCell>
        <mxCell id="_9FYrN_dxhrk0gzHvM_J-28" style="edgeStyle=orthogonalEdgeStyle;rounded=0;orthogonalLoop=1;jettySize=auto;html=1;endArrow=none;endFill=0;" parent="1" source="_9FYrN_dxhrk0gzHvM_J-6" target="_9FYrN_dxhrk0gzHvM_J-27" edge="1">
          <mxGeometry relative="1" as="geometry">
            <Array as="points">
              <mxPoint x="725" y="275" />
              <mxPoint x="820" y="275" />
            </Array>
          </mxGeometry>
        </mxCell>
        <mxCell id="_9FYrN_dxhrk0gzHvM_J-6" value="&lt;b&gt;&lt;font style=&quot;font-size: 14px&quot;&gt;Игри во вид на сложувалки и крстозбори за учење на нови поими&lt;br&gt;&lt;/font&gt;&lt;/b&gt;" style="rounded=0;whiteSpace=wrap;html=1;" parent="1" vertex="1">
          <mxGeometry x="640" y="180" width="170" height="80" as="geometry" />
        </mxCell>
        <mxCell id="D0sJHu4SgxpqtAWfSSQc-3" style="edgeStyle=orthogonalEdgeStyle;rounded=0;orthogonalLoop=1;jettySize=auto;html=1;entryX=0.378;entryY=0.01;entryDx=0;entryDy=0;entryPerimeter=0;endArrow=none;endFill=0;" edge="1" parent="1" source="_9FYrN_dxhrk0gzHvM_J-8" target="D0sJHu4SgxpqtAWfSSQc-1">
          <mxGeometry relative="1" as="geometry">
            <Array as="points">
              <mxPoint x="1105" y="270" />
              <mxPoint x="1017" y="270" />
            </Array>
          </mxGeometry>
        </mxCell>
        <mxCell id="D0sJHu4SgxpqtAWfSSQc-4" style="edgeStyle=orthogonalEdgeStyle;rounded=0;orthogonalLoop=1;jettySize=auto;html=1;entryX=0.5;entryY=0;entryDx=0;entryDy=0;endArrow=none;endFill=0;" edge="1" parent="1" source="_9FYrN_dxhrk0gzHvM_J-8" target="D0sJHu4SgxpqtAWfSSQc-2">
          <mxGeometry relative="1" as="geometry">
            <Array as="points">
              <mxPoint x="1105" y="270" />
              <mxPoint x="1215" y="270" />
            </Array>
          </mxGeometry>
        </mxCell>
        <mxCell id="_9FYrN_dxhrk0gzHvM_J-8" value="&lt;font size=&quot;1&quot;&gt;&lt;b style=&quot;font-size: 14px&quot;&gt;Вежбање на&amp;nbsp;меморија и развивање логика&lt;/b&gt;&lt;/font&gt;" style="rounded=0;whiteSpace=wrap;html=1;" parent="1" vertex="1">
          <mxGeometry x="1030" y="180" width="150" height="80" as="geometry" />
        </mxCell>
        <mxCell id="_9FYrN_dxhrk0gzHvM_J-18" style="edgeStyle=orthogonalEdgeStyle;rounded=0;orthogonalLoop=1;jettySize=auto;html=1;entryX=0.5;entryY=0;entryDx=0;entryDy=0;endArrow=none;endFill=0;" parent="1" source="_9FYrN_dxhrk0gzHvM_J-10" target="_9FYrN_dxhrk0gzHvM_J-17" edge="1">
          <mxGeometry relative="1" as="geometry" />
        </mxCell>
        <mxCell id="_9FYrN_dxhrk0gzHvM_J-10" value="&lt;b&gt;&lt;font style=&quot;font-size: 14px&quot;&gt;Одредување на животната средина во која живее животното на сликата&lt;/font&gt;&lt;/b&gt;" style="rounded=0;whiteSpace=wrap;html=1;" parent="1" vertex="1">
          <mxGeometry x="-40" y="300" width="140" height="90" as="geometry" />
        </mxCell>
        <mxCell id="_9FYrN_dxhrk0gzHvM_J-15" style="edgeStyle=orthogonalEdgeStyle;rounded=0;orthogonalLoop=1;jettySize=auto;html=1;endArrow=none;endFill=0;" parent="1" source="_9FYrN_dxhrk0gzHvM_J-11" edge="1">
          <mxGeometry relative="1" as="geometry">
            <mxPoint x="-135" y="450" as="targetPoint" />
          </mxGeometry>
        </mxCell>
        <mxCell id="_9FYrN_dxhrk0gzHvM_J-11" value="&lt;b&gt;&lt;font style=&quot;font-size: 14px&quot;&gt;Одредување на името на животното прикажано на сликата&lt;/font&gt;&lt;/b&gt;" style="rounded=0;whiteSpace=wrap;html=1;" parent="1" vertex="1">
          <mxGeometry x="-210" y="300" width="150" height="90" as="geometry" />
        </mxCell>
        <mxCell id="_9FYrN_dxhrk0gzHvM_J-16" value="&lt;span style=&quot;font-size: 14px&quot;&gt;&lt;b&gt;Пишување на името на животното&lt;/b&gt;&lt;/span&gt;" style="rounded=0;whiteSpace=wrap;html=1;" parent="1" vertex="1">
          <mxGeometry x="-210" y="440" width="150" height="90" as="geometry" />
        </mxCell>
        <mxCell id="_9FYrN_dxhrk0gzHvM_J-17" value="&lt;b&gt;&lt;font style=&quot;font-size: 14px&quot;&gt;Пишување на името на животната средина&lt;/font&gt;&lt;/b&gt;" style="rounded=0;whiteSpace=wrap;html=1;" parent="1" vertex="1">
          <mxGeometry x="-45" y="440" width="150" height="90" as="geometry" />
        </mxCell>
        <mxCell id="_9FYrN_dxhrk0gzHvM_J-19" value="&lt;b&gt;&lt;font style=&quot;font-size: 14px&quot;&gt;Броење на елементите прикажани &lt;br&gt;на сликите&lt;br&gt;&lt;/font&gt;&lt;/b&gt;" style="rounded=0;whiteSpace=wrap;html=1;" parent="1" vertex="1">
          <mxGeometry x="180" y="285" width="160" height="90" as="geometry" />
        </mxCell>
        <mxCell id="_9FYrN_dxhrk0gzHvM_J-23" value="&lt;b&gt;&lt;font style=&quot;font-size: 14px&quot;&gt;Употреба на резултатите од броењето за да се изврши некоја операција&lt;br&gt;&lt;/font&gt;&lt;/b&gt;" style="rounded=0;whiteSpace=wrap;html=1;" parent="1" vertex="1">
          <mxGeometry x="354" y="285" width="160" height="90" as="geometry" />
        </mxCell>
        <mxCell id="_9FYrN_dxhrk0gzHvM_J-25" value="&lt;b&gt;&lt;font style=&quot;font-size: 14px&quot;&gt;Одредување на боите на елементите прикажани на сликите&lt;br&gt;&lt;/font&gt;&lt;/b&gt;" style="rounded=0;whiteSpace=wrap;html=1;" parent="1" vertex="1">
          <mxGeometry x="570" y="285" width="160" height="90" as="geometry" />
        </mxCell>
        <mxCell id="_9FYrN_dxhrk0gzHvM_J-27" value="&lt;b&gt;&lt;font style=&quot;font-size: 14px&quot;&gt;Внесување на резултатите во крстозборот и откривање на скриениот поим&lt;br&gt;&lt;/font&gt;&lt;/b&gt;" style="rounded=0;whiteSpace=wrap;html=1;" parent="1" vertex="1">
          <mxGeometry x="740" y="285" width="160" height="90" as="geometry" />
        </mxCell>
        <mxCell id="D0sJHu4SgxpqtAWfSSQc-1" value="&lt;span style=&quot;font-size: 14px&quot;&gt;&lt;b&gt;Поврзување на полето со името на главниот град со полето во кое е името на државата&lt;/b&gt;&lt;/span&gt;" style="rounded=0;whiteSpace=wrap;html=1;" vertex="1" parent="1">
          <mxGeometry x="950" y="280" width="160" height="120" as="geometry" />
        </mxCell>
        <mxCell id="D0sJHu4SgxpqtAWfSSQc-2" value="&lt;span style=&quot;font-size: 14px&quot;&gt;&lt;b&gt;Одредување вкупниот број на квадрати на слика во која се прикажани повеќе разнобојни преклопени квадрати&lt;/b&gt;&lt;/span&gt;" style="rounded=0;whiteSpace=wrap;html=1;" vertex="1" parent="1">
          <mxGeometry x="1130" y="280" width="180" height="120" as="geometry" />
        </mxCell>
      </root>
    </mxGraphModel>
  </diagram>
</mxfile>
